<svg id="图层_1" data-name="图层 1" xmlns="http://www.w3.org/2000/svg" viewBox="0 0 3840 2160"><circle cx="50.83721" cy="47.72093" r="20"/><circle cx="51.30596" cy="176.30087" r="20"/><circle cx="51.77471" cy="304.88081" r="20"/><circle cx="52.24346" cy="433.46076" r="20"/><circle cx="52.71221" cy="562.0407" r="20"/><circle cx="53.18096" cy="690.62064" r="20"/><circle cx="53.64971" cy="819.20058" r="20"/><circle cx="54.11846" cy="947.78052" r="20"/><circle cx="54.58721" cy="1076.36047" r="20"/><circle cx="55.05596" cy="1204.94041" r="20"/><circle cx="55.52471" cy="1333.52035" r="20"/><circle cx="55.99346" cy="1462.10029" r="20"/><circle cx="56.46221" cy="1590.68023" r="20"/><circle cx="56.93096" cy="1719.26017" r="20"/><circle cx="57.39971" cy="1847.84012" r="20"/><circle cx="57.86846" cy="1976.42006" r="20"/><circle cx="58.33721" cy="2105" r="20"/><circle cx="139.66667" cy="47.72093" r="17.5"/><circle cx="140.13542" cy="176.30087" r="17.5"/><circle cx="140.60417" cy="304.88081" r="17.5"/><circle cx="141.07292" cy="433.46076" r="17.5"/><circle cx="141.54167" cy="562.0407" r="17.5"/><circle cx="142.01042" cy="690.62064" r="17.5"/><circle cx="142.47917" cy="819.20058" r="17.5"/><circle cx="142.94792" cy="947.78052" r="17.5"/><circle cx="143.41667" cy="1076.36047" r="17.5"/><circle cx="143.88542" cy="1204.94041" r="17.5"/><circle cx="144.35417" cy="1333.52035" r="17.5"/><circle cx="144.82292" cy="1462.10029" r="17.5"/><circle cx="145.29167" cy="1590.68023" r="17.5"/><circle cx="145.76042" cy="1719.26017" r="17.5"/><circle cx="146.22917" cy="1847.84012" r="17.5"/><circle cx="146.69792" cy="1976.42006" r="17.5"/><circle cx="147.16667" cy="2105" r="17.5"/><circle cx="223.49612" cy="47.72093" r="15"/><circle cx="223.96487" cy="176.30087" r="15"/><circle cx="224.43362" cy="304.88081" r="15"/><circle cx="224.90237" cy="433.46076" r="15"/><circle cx="225.37112" cy="562.0407" r="15"/><circle cx="225.83987" cy="690.62064" r="15"/><circle cx="226.30862" cy="819.20058" r="15"/><circle cx="226.77737" cy="947.78052" r="15"/><circle cx="227.24612" cy="1076.36047" r="15"/><circle cx="227.71487" cy="1204.94041" r="15"/><circle cx="228.18362" cy="1333.52035" r="15"/><circle cx="228.65237" cy="1462.10029" r="15"/><circle cx="229.12112" cy="1590.68023" r="15"/><circle cx="229.58987" cy="1719.26017" r="15"/><circle cx="230.05862" cy="1847.84012" r="15"/><circle cx="230.52737" cy="1976.42006" r="15"/><circle cx="230.99612" cy="2105" r="15"/><circle cx="304.82558" cy="47.72093" r="12.5"/><circle cx="305.29433" cy="176.30087" r="12.5"/><circle cx="305.76308" cy="304.88081" r="12.5"/><circle cx="306.23183" cy="433.46076" r="12.5"/><circle cx="306.70058" cy="562.0407" r="12.5"/><circle cx="307.16933" cy="690.62064" r="12.5"/><circle cx="307.63808" cy="819.20058" r="12.5"/><circle cx="308.10683" cy="947.78052" r="12.5"/><circle cx="308.57558" cy="1076.36047" r="12.5"/><circle cx="309.04433" cy="1204.94041" r="12.5"/><circle cx="309.51308" cy="1333.52035" r="12.5"/><circle cx="309.98183" cy="1462.10029" r="12.5"/><circle cx="310.45058" cy="1590.68023" r="12.5"/><circle cx="310.91933" cy="1719.26017" r="12.5"/><circle cx="311.38808" cy="1847.84012" r="12.5"/><circle cx="311.85683" cy="1976.42006" r="12.5"/><circle cx="312.32558" cy="2105" r="12.5"/><circle cx="383.65504" cy="47.72093" r="10"/><circle cx="384.12379" cy="176.30087" r="10"/><circle cx="384.59254" cy="304.88081" r="10"/><circle cx="385.06129" cy="433.46076" r="10"/><circle cx="385.53004" cy="562.0407" r="10"/><circle cx="385.99879" cy="690.62064" r="10"/><circle cx="386.46754" cy="819.20058" r="10"/><circle cx="386.93629" cy="947.78052" r="10"/><circle cx="387.40504" cy="1076.36047" r="10"/><circle cx="387.87379" cy="1204.94041" r="10"/><circle cx="388.34254" cy="1333.52035" r="10"/><circle cx="388.81129" cy="1462.10029" r="10"/><circle cx="389.28004" cy="1590.68023" r="10"/><circle cx="389.74879" cy="1719.26017" r="10"/><circle cx="390.21754" cy="1847.84012" r="10"/><circle cx="390.68629" cy="1976.42006" r="10"/><circle cx="391.15504" cy="2105" r="10"/><circle cx="459.9845" cy="47.72093" r="7.5"/><circle cx="460.45325" cy="176.30087" r="7.5"/><circle cx="460.922" cy="304.88081" r="7.5"/><circle cx="461.39075" cy="433.46076" r="7.5"/><circle cx="461.8595" cy="562.0407" r="7.5"/><circle cx="462.32825" cy="690.62064" r="7.5"/><circle cx="462.797" cy="819.20058" r="7.5"/><circle cx="463.26575" cy="947.78052" r="7.5"/><circle cx="463.7345" cy="1076.36047" r="7.5"/><circle cx="464.20325" cy="1204.94041" r="7.5"/><circle cx="464.672" cy="1333.52035" r="7.5"/><circle cx="465.14075" cy="1462.10029" r="7.5"/><circle cx="465.6095" cy="1590.68023" r="7.5"/><circle cx="466.07825" cy="1719.26017" r="7.5"/><circle cx="466.547" cy="1847.84012" r="7.5"/><circle cx="467.01575" cy="1976.42006" r="7.5"/><circle cx="467.4845" cy="2105" r="7.5"/><circle cx="533.81395" cy="47.72093" r="5"/><circle cx="534.2827" cy="176.30087" r="5"/><circle cx="534.75145" cy="304.88081" r="5"/><circle cx="535.2202" cy="433.46076" r="5"/><circle cx="535.68895" cy="562.0407" r="5"/><circle cx="536.1577" cy="690.62064" r="5"/><circle cx="536.62645" cy="819.20058" r="5"/><circle cx="537.0952" cy="947.78052" r="5"/><circle cx="537.56395" cy="1076.36047" r="5"/><circle cx="538.0327" cy="1204.94041" r="5"/><circle cx="538.50145" cy="1333.52035" r="5"/><circle cx="538.9702" cy="1462.10029" r="5"/><circle cx="539.43895" cy="1590.68023" r="5"/><circle cx="539.9077" cy="1719.26017" r="5"/><circle cx="540.37645" cy="1847.84012" r="5"/><circle cx="540.8452" cy="1976.42006" r="5"/><circle cx="541.31395" cy="2105" r="5"/><circle cx="3790.41915" cy="47.72093" r="20"/><circle cx="3789.9504" cy="176.30087" r="20"/><circle cx="3789.48165" cy="304.88081" r="20"/><circle cx="3789.0129" cy="433.46076" r="20"/><circle cx="3788.54415" cy="562.0407" r="20"/><circle cx="3788.0754" cy="690.62064" r="20"/><circle cx="3787.60665" cy="819.20058" r="20"/><circle cx="3787.1379" cy="947.78052" r="20"/><circle cx="3786.66915" cy="1076.36047" r="20"/><circle cx="3786.2004" cy="1204.94041" r="20"/><circle cx="3785.73165" cy="1333.52035" r="20"/><circle cx="3785.2629" cy="1462.10029" r="20"/><circle cx="3784.79415" cy="1590.68023" r="20"/><circle cx="3784.3254" cy="1719.26017" r="20"/><circle cx="3783.85665" cy="1847.84012" r="20"/><circle cx="3783.3879" cy="1976.42006" r="20"/><circle cx="3782.91915" cy="2105" r="20"/><circle cx="3701.58969" cy="47.72093" r="17.5"/><circle cx="3701.12094" cy="176.30087" r="17.5"/><circle cx="3700.65219" cy="304.88081" r="17.5"/><circle cx="3700.18344" cy="433.46076" r="17.5"/><circle cx="3699.71469" cy="562.0407" r="17.5"/><circle cx="3699.24594" cy="690.62064" r="17.5"/><circle cx="3698.77719" cy="819.20058" r="17.5"/><circle cx="3698.30844" cy="947.78052" r="17.5"/><circle cx="3697.83969" cy="1076.36047" r="17.5"/><circle cx="3697.37094" cy="1204.94041" r="17.5"/><circle cx="3696.90219" cy="1333.52035" r="17.5"/><circle cx="3696.43344" cy="1462.10029" r="17.5"/><circle cx="3695.96469" cy="1590.68023" r="17.5"/><circle cx="3695.49594" cy="1719.26017" r="17.5"/><circle cx="3695.02719" cy="1847.84012" r="17.5"/><circle cx="3694.55844" cy="1976.42006" r="17.5"/><circle cx="3694.08969" cy="2105" r="17.5"/><circle cx="3617.76024" cy="47.72093" r="15"/><circle cx="3617.29149" cy="176.30087" r="15"/><circle cx="3616.82274" cy="304.88081" r="15"/><circle cx="3616.35399" cy="433.46076" r="15"/><circle cx="3615.88524" cy="562.0407" r="15"/><circle cx="3615.41649" cy="690.62064" r="15"/><circle cx="3614.94774" cy="819.20058" r="15"/><circle cx="3614.47899" cy="947.78052" r="15"/><circle cx="3614.01024" cy="1076.36047" r="15"/><circle cx="3613.54149" cy="1204.94041" r="15"/><circle cx="3613.07274" cy="1333.52035" r="15"/><circle cx="3612.60399" cy="1462.10029" r="15"/><circle cx="3612.13524" cy="1590.68023" r="15"/><circle cx="3611.66649" cy="1719.26017" r="15"/><circle cx="3611.19774" cy="1847.84012" r="15"/><circle cx="3610.72899" cy="1976.42006" r="15"/><circle cx="3610.26024" cy="2105" r="15"/><circle cx="3536.43078" cy="47.72093" r="12.5"/><circle cx="3535.96203" cy="176.30087" r="12.5"/><circle cx="3535.49328" cy="304.88081" r="12.5"/><circle cx="3535.02453" cy="433.46076" r="12.5"/><circle cx="3534.55578" cy="562.0407" r="12.5"/><circle cx="3534.08703" cy="690.62064" r="12.5"/><circle cx="3533.61828" cy="819.20058" r="12.5"/><circle cx="3533.14953" cy="947.78052" r="12.5"/><circle cx="3532.68078" cy="1076.36047" r="12.5"/><circle cx="3532.21203" cy="1204.94041" r="12.5"/><circle cx="3531.74328" cy="1333.52035" r="12.5"/><circle cx="3531.27453" cy="1462.10029" r="12.5"/><circle cx="3530.80578" cy="1590.68023" r="12.5"/><circle cx="3530.33703" cy="1719.26017" r="12.5"/><circle cx="3529.86828" cy="1847.84012" r="12.5"/><circle cx="3529.39953" cy="1976.42006" r="12.5"/><circle cx="3528.93078" cy="2105" r="12.5"/><circle cx="3457.60132" cy="47.72093" r="10"/><circle cx="3457.13257" cy="176.30087" r="10"/><circle cx="3456.66382" cy="304.88081" r="10"/><circle cx="3456.19507" cy="433.46076" r="10"/><circle cx="3455.72632" cy="562.0407" r="10"/><circle cx="3455.25757" cy="690.62064" r="10"/><circle cx="3454.78882" cy="819.20058" r="10"/><circle cx="3454.32007" cy="947.78052" r="10"/><circle cx="3453.85132" cy="1076.36047" r="10"/><circle cx="3453.38257" cy="1204.94041" r="10"/><circle cx="3452.91382" cy="1333.52035" r="10"/><circle cx="3452.44507" cy="1462.10029" r="10"/><circle cx="3451.97632" cy="1590.68023" r="10"/><circle cx="3451.50757" cy="1719.26017" r="10"/><circle cx="3451.03882" cy="1847.84012" r="10"/><circle cx="3450.57007" cy="1976.42006" r="10"/><circle cx="3450.10132" cy="2105" r="10"/><circle cx="3381.27186" cy="47.72093" r="7.5"/><circle cx="3380.80311" cy="176.30087" r="7.5"/><circle cx="3380.33436" cy="304.88081" r="7.5"/><circle cx="3379.86561" cy="433.46076" r="7.5"/><circle cx="3379.39686" cy="562.0407" r="7.5"/><circle cx="3378.92811" cy="690.62064" r="7.5"/><circle cx="3378.45936" cy="819.20058" r="7.5"/><circle cx="3377.99061" cy="947.78052" r="7.5"/><circle cx="3377.52186" cy="1076.36047" r="7.5"/><circle cx="3377.05311" cy="1204.94041" r="7.5"/><circle cx="3376.58436" cy="1333.52035" r="7.5"/><circle cx="3376.11561" cy="1462.10029" r="7.5"/><circle cx="3375.64686" cy="1590.68023" r="7.5"/><circle cx="3375.17811" cy="1719.26017" r="7.5"/><circle cx="3374.70936" cy="1847.84012" r="7.5"/><circle cx="3374.24061" cy="1976.42006" r="7.5"/><circle cx="3373.77186" cy="2105" r="7.5"/><circle cx="3307.44241" cy="47.72093" r="5"/><circle cx="3306.97366" cy="176.30087" r="5"/><circle cx="3306.50491" cy="304.88081" r="5"/><circle cx="3306.03616" cy="433.46076" r="5"/><circle cx="3305.56741" cy="562.0407" r="5"/><circle cx="3305.09866" cy="690.62064" r="5"/><circle cx="3304.62991" cy="819.20058" r="5"/><circle cx="3304.16116" cy="947.78052" r="5"/><circle cx="3303.69241" cy="1076.36047" r="5"/><circle cx="3303.22366" cy="1204.94041" r="5"/><circle cx="3302.75491" cy="1333.52035" r="5"/><circle cx="3302.28616" cy="1462.10029" r="5"/><circle cx="3301.81741" cy="1590.68023" r="5"/><circle cx="3301.34866" cy="1719.26017" r="5"/><circle cx="3300.87991" cy="1847.84012" r="5"/><circle cx="3300.41116" cy="1976.42006" r="5"/><circle cx="3299.94241" cy="2105" r="5"/></svg>