<svg id="图层_2" data-name="图层 2" xmlns="http://www.w3.org/2000/svg" viewBox="0 0 3350 269.14014"><path d="M468.63281,1127.69727v50.78125q-45.89941,43.16748-99.21875,43.16406-52.14843,0-87.30468-39.25781T246.95313,1086.877q0-57.02709,37.10937-95.70263,37.106-38.67187,85.35156-38.67188,35.74219,0,65.23438,24.02344,6.6372-6.83422,15.625-17.57813h13.08594v77.92969H450.27344q-21.29-71.48437-80.85938-71.48437-20.11816,0-31.93359,8.98437-11.81982,8.98608-14.74609,27.44141-2.92969,18.457-2.92969,74.707,0,54.49146.48828,81.34717.48486,26.85791,11.81641,38.3789,11.3247,11.52685,34.17968,11.52344,17.96778,0,26.17188-6.15234a25.00986,25.00986,0,0,0,9.96094-16.3086q1.75781-10.15282,1.75781-31.25v-26.36718H369.02344V1115.002H489.14063v12.69532Z" transform="translate(-246.95313 -952.50244)"/><path d="M688.16406,1089.80664H601.83594v115.625h33.20312V1218.127H504.57031v-12.69531h33.20313v-236.523H504.57031V956.21338H635.03906v12.69531H601.83594v107.22656h86.32812V968.90869h-32.8125V956.21338H785.42969v12.69531H752.22656v236.523h33.20313V1218.127H655.35156v-12.69531h32.8125Z" transform="translate(-246.95313 -952.50244)"/><path d="M808.86719,1086.0957q0-58.78491,34.76562-96.19091,34.76222-37.39893,83.39844-37.40235,45.1172,0,80.76172,35.15625,35.64111,35.15625,35.64453,99.99951,0,60.7456-33.69141,97.36328-33.69139,36.6211-82.32421,36.6211-52.5425,0-85.54688-38.86719Q808.86621,1143.91162,808.86719,1086.0957Zm161.71875,1.17188q0-60.15381-2.2461-79.29639-2.24706-19.13892-11.52343-30.85937-9.27833-11.71875-30.56641-11.71875-17.97217,0-28.61328,9.47265-10.64794,9.47609-13.28125,30.3711-2.63671,20.90185-2.63672,81.64013,0,60.15968,2.24609,79.58985,2.24268,19.437,11.91407,30.957,9.668,11.52686,30.37109,11.52344,17.18408,0,28.02734-9.27735,10.83986-9.27393,13.57422-30.17578Q970.585,1148.59815,970.58594,1087.26758Z" transform="translate(-246.95313 -952.50244)"/><path d="M1220.58594,957.38525l3.125,70.3125h-15.625q-12.30469-34.7622-28.02735-48.53515-15.72363-13.76954-37.98828-13.76953-18.94629,0-31.25,11.91406-12.30468,11.91578-12.30468,27.53906,0,19.33595,12.89062,26.5625,12.89063,7.22828,44.32715,13.91309,48.22559,10.4231,64.74316,31.207,16.51611,20.78686,16.51563,52.79541,0,37.67432-21.77735,64.99609-21.78075,27.32373-61.03515,27.32227-27.9331,0-50.39063-17.57813-10.94091,8.59718-19.72656,16.79688h-13.08594v-76.36719h15.23438q17.18408,64.45313,66.79687,64.45313,26.1709,0,40.23438-15.42969,14.0625-15.42627,14.0625-34.57031a32.42623,32.42623,0,0,0-6.15235-19.33594,50.14016,50.14016,0,0,0-14.35546-13.67188q-8.20312-5.07569-45.29688-12.76562-37.09717-7.686-54.39453-28.56445-17.30419-20.87769-17.30078-52.10206,0-33.56322,21.16113-56.78418,21.15821-23.21776,52.75879-23.2207,23.98681,0,47.78418,16.79688a121.67625,121.67625,0,0,0,16.38184-11.91407Z" transform="translate(-246.95313 -952.50244)"/><path d="M1261.79688,956.21338h216.79687l1.5625,85.54687h-11.91406q-14.45655-72.84814-59.96094-72.85156h-6.05469v236.523H1441.875V1218.127H1298.71094v-12.69531h39.45312v-236.523h-5.85937q-45.51123,0-60.15625,72.85156h-11.91406Z" transform="translate(-246.95313 -952.50244)"/><path d="M2536.79688,957.38525l3.125,70.3125h-15.625q-12.30469-34.7622-28.02735-48.53515-15.72363-13.76954-37.98828-13.76953-18.94629,0-31.25,11.91406-12.30468,11.91578-12.30469,27.53906,0,19.33595,12.89063,26.5625,12.89063,7.22828,44.32715,13.91309,48.22558,10.4231,64.74316,31.207,16.51611,20.78686,16.51563,52.79541,0,37.67432-21.77735,64.99609-21.78076,27.32373-61.03515,27.32227-27.93312,0-50.39063-17.57813-10.94093,8.59718-19.72656,16.79688H2387.1875v-76.36719h15.23438q17.18408,64.45313,66.79687,64.45313,26.1709,0,40.23438-15.42969,14.0625-15.42627,14.0625-34.57031a32.42629,32.42629,0,0,0-6.15235-19.33594,50.14019,50.14019,0,0,0-14.35547-13.67188q-8.20312-5.07569-45.29687-12.76562-37.09717-7.686-54.39453-28.56445-17.30421-20.87769-17.30078-52.10206,0-33.56322,21.16113-56.78418,21.15821-23.21776,52.75879-23.2207,23.98681,0,47.78418,16.79688a121.67621,121.67621,0,0,0,16.38183-11.91407Z" transform="translate(-246.95313 -952.50244)"/><path d="M2762.77344,1089.80664h-86.32813v115.625h33.20313V1218.127H2579.17969v-12.69531h33.20312v-236.523h-33.20312V956.21338h130.46875v12.69531h-33.20313v107.22656h86.32813V968.90869h-32.8125V956.21338h130.07812v12.69531h-33.20312v236.523h33.20312V1218.127H2729.96094v-12.69531h32.8125Z" transform="translate(-246.95313 -952.50244)"/><path d="M2979.57031,968.90869v110.74219h8.39844q40.81933,0,47.26563-46.28906h12.69531v107.03076h-12.69531q-3.32375-48.04687-47.26563-48.04688h-8.39844v113.08594h44.72657q59.17968,0,77.34375-73.24219h13.47656l-5.46875,85.9375H2882.30469v-12.69531h33.20312v-236.523h-33.20312V956.21338h219.33594l3.51562,73.04687h-12.69531q-12.32667-37.106-30.6211-48.73046-18.293-11.61768-48.22656-11.6211Z" transform="translate(-246.95313 -952.50244)"/><path d="M3355.15625,1218.127H3135.23438v-12.69531h35.54687v-236.523h-35.54687V956.21338h138.67187v12.69531h-39.0625v236.523h24.80469q20.6997,0,30.5664-2.1543,9.85987-2.15186,21.875-12.62793a89.53637,89.53637,0,0,0,20.3125-26.33691,241.17522,241.17522,0,0,0,14.7461-35.05273h12.10937Z" transform="translate(-246.95313 -952.50244)"/><path d="M3592.85156,1218.127H3372.92969v-12.69531h35.54687v-236.523h-35.54687V956.21338h138.67187v12.69531h-39.0625v236.523h24.80469q20.6997,0,30.56641-2.1543,9.85986-2.15186,21.875-12.62793a89.5367,89.5367,0,0,0,20.3125-26.33691,241.17521,241.17521,0,0,0,14.74609-35.05273h12.10938Z" transform="translate(-246.95313 -952.50244)"/></svg>