<svg id="图层_3" data-name="图层 3" xmlns="http://www.w3.org/2000/svg" viewBox="0 0 274.82617 431.35938"><defs><style>.cls-1{fill:#fff;}</style></defs><path class="cls-1" d="M1869.15967,888.97363h-8.23242a1.34384,1.34384,0,0,1-1.09766-.49951,1.84452,1.84452,0,0,1-.41162-1.21338,2.0696,2.0696,0,0,1,.41162-1.355,1.34944,1.34944,0,0,1,1.09766-.49951h44.59228a1.56171,1.56171,0,0,1,1.166.49951,1.68985,1.68985,0,0,1,.48047,1.21338,1.87388,1.87388,0,0,1-.48047,1.355,1.55461,1.55461,0,0,1-1.166.49951h-8.23242v199.22461h8.23242q1.36964.9624,1.37207,1.78418,0,.96094-1.37207,1.78321h-45.68994q-1.51172-.958-1.50928-1.78321,0-.82324,1.50928-1.78418h9.33008Z" transform="translate(-1781.76367 -885.40625)"/><path class="cls-1" d="M1979.06348,902.41992q0-6.30908-1.64649-9.05566a8.78786,8.78786,0,0,0-5.07715-3.8418l-5.89941-.54883c-.459-.18847-.68652-.71191-.68652-1.56933a2.60615,2.60615,0,0,1,.34277-1.56934q.34131-.42774,1.71484-.42871h24.28614a1.054,1.054,0,0,1,.8916.48047,1.96553,1.96553,0,0,1,.34375,1.166,1.39883,1.39883,0,0,1-.34375,1.0293,10.08365,10.08365,0,0,1-2.40039,1.166q-4.25538,1.64647-5.90039,4.31982-1.64649,2.67553-2.0586,9.939v188.25879h-21.209L1927.06152,903.792v170.14746q0,6.99464,1.50977,9.80371a8.11337,8.11337,0,0,0,4.93945,3.90625l6.17383.54883a1.87166,1.87166,0,0,1,.68555,1.71289,2.28545,2.28545,0,0,1-.34082,1.499,2.60458,2.60458,0,0,1-1.70606.35547h-24.166a1.11134,1.11134,0,0,1-.8877-.39649,1.56247,1.56247,0,0,1-.34082-1.05664,1.31294,1.31294,0,0,1,.34326-.99023,10.26327,10.26327,0,0,1,2.40088-1.124q4.251-1.64647,5.832-4.25293,1.57471-2.6045,1.98926-10.15381V888.97363h-7.68408a1.54785,1.54785,0,0,1-1.166-.49951,1.86564,1.86564,0,0,1-.48047-1.355,1.68975,1.68975,0,0,1,.478-1.21338,1.55445,1.55445,0,0,1,1.16406-.49951h35.41114l27.84668,151.06494Z" transform="translate(-1781.76367 -885.40625)"/><path class="cls-1" d="M1812.22363,1113.97363h-2.89648a7.728,7.728,0,0,0-5.23926,1.91895q-3.31275,2.874-6.4834,12.73828a259.62506,259.62506,0,0,0-8.689,37.74023q-3.58521,21.98731-3.58448,27.877v3.15234a2.55648,2.55648,0,0,1-.52929,1.71289,1.54294,1.54294,0,0,1-1.188.61524,1.37011,1.37011,0,0,1-1.18994-.54883,2.78574,2.78574,0,0,1-.66016-1.78418v-86.98926H1870.811v87.12207a2.3497,2.3497,0,0,1-.5293,1.582,1.66771,1.66771,0,0,1-1.3208.61817,1.54274,1.54274,0,0,1-1.18994-.61817,2.3407,2.3407,0,0,1-.52735-1.57715v-5.35156q0-7.82081-3.93164-29.15625a243.75578,243.75578,0,0,0-9.03222-35.87988q-3.312-9.32959-5.44776-11.251a6.27766,6.27766,0,0,0-4.06689-1.9209h-4.41407v199.22461h10.70215q1.50806.9624,1.50928,1.78418,0,.82324-1.50488,1.78321h-50.77539a1.363,1.363,0,0,1-1.09522-.48047,2.27329,2.27329,0,0,1,.00195-2.60645,1.37359,1.37359,0,0,1,1.09766-.48047h11.937Z" transform="translate(-1781.76367 -885.40625)"/><path class="cls-1" d="M1888.09912,1313.19824V1113.97363h-9.05566q-1.51173-.99756-1.50928-1.85449,0-.71484,1.50488-1.71289h41.58252q1.50513,1.00049,1.50537,1.71289,0,.85547-1.50976,1.85449h-4.39063v93.84961H1933.79v-93.84961h-5.76367q-1.51173-.99756-1.50977-1.85449,0-.85547,1.50977-1.71289h42.39648q1.50879,1.00049,1.50977,1.71289,0,.85547-1.50977,1.85449h-8.23242v199.22461h8.23242a1.8375,1.8375,0,0,1,1.23633.48047,1.8217,1.8217,0,0,1,0,2.60645,1.82341,1.82341,0,0,1-1.23633.48047h-41.02344a1.574,1.574,0,0,1-1.166-.48047,2.00767,2.00767,0,0,1,0-2.60645,1.58519,1.58519,0,0,1,1.166-.48047H1933.79v-102.082h-17.56348v102.082h5.2461a1.541,1.541,0,0,1,1.14257.48047,1.78589,1.78589,0,0,1,.47168,1.30371,1.76782,1.76782,0,0,1-.47753,1.30274,1.56132,1.56132,0,0,1-1.15821.48047h-42.4165q-1.50147-.958-1.50049-1.78321,0-.82324,1.50928-1.78418Z" transform="translate(-1781.76367 -885.40625)"/><path class="cls-1" d="M1987.4375,1113.97363h-8.89941q-1.39161-.99756-1.39161-1.71289,0-.99756,1.375-1.85449h78.06836v76.42383q-.82323,1.374-1.64648,1.37305a1.33342,1.33342,0,0,1-1.166-.47852q-.34424-.479-.48046-3.9043a163.17068,163.17068,0,0,0-7.13477-42.31933q-6.17431-19.5835-11.9375-24.78809-3.01905-2.73926-10.15234-2.73926h-8.50782v96.45606q7.82227-.82325,12.76075-8.23242,6.58593-10.01368,6.58593-30.73438v-10.70117a1.63883,1.63883,0,0,1,1.64649-1.64649,1.37548,1.37548,0,0,1,1.09765.4795,1.7352,1.7352,0,0,1,.41114,1.167v101.94433a1.72562,1.72562,0,0,1-.41114,1.166,1.37025,1.37025,0,0,1-1.09765.48047,1.64047,1.64047,0,0,1-1.64649-1.64649v-9.8789q0-20.3042-7.40918-32.24317-4.39307-6.85986-9.19336-6.86132a2.3608,2.3608,0,0,0-1.91992.82422,4.57688,4.57688,0,0,0-.82422,3.01757v95.63379h4.39063a18.2223,18.2223,0,0,0,11.11426-4.18457q5.48583-4.18359,10.29-14.54394a106.26933,106.26933,0,0,0,7.41015-22.57129q4.251-19.75782,4.25293-30.8711v-9.05566c.63867-1.00488,1.23535-1.50879,1.78418-1.50879a1.93636,1.93636,0,0,1,1.30274.41113,1.37766,1.37766,0,0,1,.48046,1.09766v84.794h-77.93359a2.03408,2.03408,0,0,1-1.50977-.54883,1.69851,1.69851,0,0,1-.54882-1.23438,1.64436,1.64436,0,0,1,.54882-1.30371,2.218,2.218,0,0,1,1.50977-.48047h8.78125Z" transform="translate(-1781.76367 -885.40625)"/></svg>